<?xml version="1.0" encoding="utf-8"?>
<!-- Generator: Avocode 2.6.0 - http://avocode.com -->
<svg height="40" width="35" xmlns:xlink="http://www.w3.org/1999/xlink" xmlns="http://www.w3.org/2000/svg" viewBox="0 0 35 40">
    <path stroke-width="5" stroke="#272c31" fill="none" fill-rule="evenodd" d="M 32 29.84 C 32 29.84 31.89 29.98 31.89 29.98 C 28.05 34.51 22.94 37 17.5 37 C 12.06 37 6.95 34.51 3.12 29.98 C 3.12 29.98 3 29.84 3 29.84 C 3 29.84 3.03 29.67 3.03 29.67 C 3.77 24.92 6.83 19.63 10.68 17.45 C 10.68 17.45 12.92 20.85 17.5 20.85 C 21.14 20.85 24.32 17.45 24.32 17.45 C 28.17 19.63 31.23 24.92 31.98 29.67 C 31.98 29.67 32 29.84 32 29.84 Z M 17.5 19.98 C 22.26 19.98 26.13 16.17 26.13 11.49 C 26.13 6.81 22.26 3 17.5 3 C 12.74 3 8.87 6.81 8.87 11.49 C 8.87 16.17 12.74 19.98 17.5 19.98 Z" />
</svg>